<?xml version="1.0" encoding="UTF-8" standalone="no"?>
<!-- Created with Inkscape (http://www.inkscape.org/) -->

<svg
   width="240"
   height="26"
   viewBox="0 0 68.974872 7.4722778"
   version="1.1"
   id="svg5"
   inkscape:version="1.2.1 (9c6d41e410, 2022-07-14)"
   sodipodi:docname="logo.svg"
   xmlns:inkscape="http://www.inkscape.org/namespaces/inkscape"
   xmlns:sodipodi="http://sodipodi.sourceforge.net/DTD/sodipodi-0.dtd"
   xmlns="http://www.w3.org/2000/svg"
   xmlns:svg="http://www.w3.org/2000/svg">
  <sodipodi:namedview
     id="namedview7"
     pagecolor="#ffffff"
     bordercolor="#000000"
     borderopacity="0.25"
     inkscape:showpageshadow="2"
     inkscape:pageopacity="0.0"
     inkscape:pagecheckerboard="0"
     inkscape:deskcolor="#d1d1d1"
     inkscape:document-units="mm"
     showgrid="false"
     inkscape:zoom="5.1659481"
     inkscape:cx="147.89154"
     inkscape:cy="75.10722"
     inkscape:window-width="3840"
     inkscape:window-height="2066"
     inkscape:window-x="-11"
     inkscape:window-y="-11"
     inkscape:window-maximized="1"
     inkscape:current-layer="layer1" />
  <defs
     id="defs2" />
  <g
     inkscape:label="Layer 1"
     inkscape:groupmode="layer"
     id="layer1">
    <rect
       style="fill:#217844;stroke:#00000f;stroke-width:0.0610255;stroke-miterlimit:1"
       id="rect864"
       width="37.346996"
       height="6.0453367"
       x="26.672634"
       y="0.91105449" />
    <text
       xml:space="preserve"
       style="font-style:normal;font-variant:normal;font-weight:normal;font-stretch:normal;font-size:6.35px;font-family:Calibri;-inkscape-font-specification:Calibri;fill:#165016;stroke:#00000f;stroke-width:0.0539999;stroke-miterlimit:1;stroke-dasharray:none"
       x="82.180176"
       y="95.625328"
       id="text3303"><tspan
         sodipodi:role="line"
         id="tspan3301"
         style="fill:#165016;stroke-width:0.054"
         x="82.180176"
         y="95.625328" /></text>
    <!-- <g
       id="g5730"
       transform="matrix(0.57568164,0,0,0.53998363,-62.239348,-52.859622)">
      <g
         aria-label="AMD"
         id="text954"
         style="font-size:6.35px;font-family:Calibri;-inkscape-font-specification:Calibri;fill:#000080;stroke:#00000f;stroke-width:0.0539999;stroke-miterlimit:1"
         transform="translate(27.503837,13.598552)">
        <path
           d="m 89.87666,89.436026 q 0.04779,0.05463 0.06348,0.09511 0.01746,0.03646 0.0022,0.06566 -0.01528,0.0292 -0.06797,0.05628 -0.0498,0.02596 -0.139412,0.0607 -0.08962,0.03475 -0.146787,0.05026 -0.05316,0.01729 -0.08543,0.01982 -0.0305,-0.0015 -0.05168,-0.01322 -0.01829,-0.01286 -0.03994,-0.0344 l -0.673965,-0.786215 -1.555301,0.60303 0.04216,1.017881 q 0.0014,0.02938 -0.0052,0.05522 -0.0077,0.02295 -0.03103,0.04861 -0.02154,0.02165 -0.07133,0.04761 -0.0469,0.02484 -0.127848,0.05622 -0.08384,0.0325 -0.142126,0.04513 -0.05428,0.01439 -0.08525,0.0031 -0.02808,-0.01239 -0.04265,-0.04997 -0.0128,-0.04159 -0.01433,-0.11416 l -0.09264,-3.961315 q -7.66e-4,-0.03628 0.0087,-0.06324 0.01239,-0.02808 0.0426,-0.0531 0.0331,-0.02613 0.08691,-0.05032 0.05558,-0.0282 0.142303,-0.06183 0.09251,-0.03587 0.155459,-0.05362 0.06183,-0.02065 0.103895,-0.02366 0.04206,-0.003 0.07127,0.01227 0.02808,0.01239 0.05198,0.03971 z m -2.799476,-2.442912 -0.0029,0.0011 0.07829,2.114582 1.300903,-0.504394 z"
           style="stroke-width:0.054"
           id="path4984" />
        <path
           d="m 94.99296,89.362526 q -2.68e-4,0.0248 -0.01287,0.04327 -0.0126,0.01847 -0.04374,0.03054 -0.0311,0.009 -0.08078,0.01463 -0.04661,0.0088 -0.124117,0.008 -0.07131,-7.69e-4 -0.123916,-0.01064 -0.04954,-0.0067 -0.08044,-0.01637 -0.02777,-0.0127 -0.03997,-0.03144 -0.0122,-0.01874 -0.01193,-0.04354 l 0.03766,-3.494157 -0.0062,-6.7e-5 -1.467119,3.494252 q -0.0095,0.0216 -0.0283,0.0369 -0.01567,0.01533 -0.04991,0.02737 -0.0311,0.009 -0.07764,0.01157 -0.04347,0.0057 -0.105481,0.0051 -0.06511,-7.02e-4 -0.111547,-0.0074 -0.04644,-0.0067 -0.07734,-0.01634 -0.03087,-0.01274 -0.04931,-0.02844 -0.01533,-0.01567 -0.02133,-0.03434 l -1.329447,-3.524398 -0.0031,-3.4e-5 -0.03767,3.494158 q -2.67e-4,0.0248 -0.01287,0.04327 -0.0126,0.01847 -0.04374,0.03054 -0.0311,0.009 -0.08078,0.01463 -0.04971,0.0088 -0.127216,0.0079 -0.07441,-8.02e-4 -0.123916,-0.01064 -0.04954,-0.0067 -0.08044,-0.01637 -0.02777,-0.0127 -0.03997,-0.03144 -0.0091,-0.0187 -0.0088,-0.04351 l 0.03977,-3.689482 q 0.0014,-0.130217 0.07022,-0.18529 0.06881,-0.05507 0.152521,-0.05417 l 0.322442,0.0035 q 0.09921,0.0011 0.173422,0.02047 0.07421,0.0194 0.129582,0.06031 0.05537,0.04091 0.09191,0.103316 0.03654,0.06241 0.06354,0.146421 l 1.131337,2.917613 0.0155,1.67e-4 1.240374,-2.882745 q 0.03511,-0.09265 0.07611,-0.157319 0.04101,-0.06467 0.08791,-0.101377 0.05004,-0.03977 0.109116,-0.05464 0.05911,-0.01797 0.136618,-0.01713 l 0.337944,0.0036 q 0.04651,5.01e-4 0.08665,0.01644 0.04327,0.01287 0.07084,0.04417 0.0307,0.02824 0.04881,0.07494 0.01813,0.04361 0.01743,0.108714 z"
           style="stroke-width:0.054"
           id="path4986" />
        <path
           d="m 99.688647,89.106481 q -0.202131,0.480082 -0.476607,0.788407 -0.273273,0.305468 -0.610318,0.442789 -0.332985,0.135666 -0.72523,0.10845 -0.392245,-0.02722 -0.866611,-0.22694 l -0.78299,-0.329666 q -0.06573,-0.02767 -0.107689,-0.0958 -0.0379,-0.06979 0.009,-0.181233 l 1.388446,-3.297704 q 0.04692,-0.111447 0.122123,-0.130248 0.07926,-0.02046 0.144986,0.0072 l 0.837285,0.352526 q 0.480082,0.202131 0.758628,0.467433 0.279749,0.262444 0.403985,0.590616 0.128297,0.326518 0.103035,0.706129 -0.0224,0.380814 -0.198064,0.798028 z m -0.525653,-0.197768 q 0.126331,-0.300051 0.160317,-0.58852 0.03519,-0.291326 -0.04543,-0.547307 -0.07776,-0.254777 -0.276143,-0.462778 -0.198382,-0.208 -0.581304,-0.369224 l -0.500085,-0.210553 -1.211581,2.877633 0.505801,0.212959 q 0.354346,0.149191 0.634542,0.162873 0.280196,0.01368 0.520083,-0.100626 0.239887,-0.114308 0.435404,-0.354952 0.199578,-0.242298 0.358396,-0.619505 z"
           style="stroke-width:0.054"
           id="path4988" />
      </g>
      <g
         aria-label="Research"
         id="text3463"
         style="font-size:6.35px;font-family:Calibri;-inkscape-font-specification:Calibri;fill:#165016;stroke:#00000f;stroke-width:0.0539999;stroke-miterlimit:1"
         transform="translate(28.562171,13.598552)">
        <path
           d="m 83.86747,96.36485 q 0,0.02481 -0.0093,0.04341 -0.0093,0.0186 -0.04031,0.03101 -0.031,0.0124 -0.08682,0.0186 -0.05581,0.0062 -0.148828,0.0062 -0.08062,0 -0.133325,-0.0062 -0.04961,-0.0062 -0.08062,-0.0186 -0.031,-0.0155 -0.04961,-0.04031 -0.0155,-0.0248 -0.0279,-0.06201 l -0.36897,-0.945679 q -0.06511,-0.161231 -0.136426,-0.294556 -0.06821,-0.136426 -0.164331,-0.232544 -0.09612,-0.09922 -0.226343,-0.151928 -0.130224,-0.05581 -0.313159,-0.05581 h -0.356567 v 1.708423 q 0,0.02481 -0.0155,0.04341 -0.0124,0.0186 -0.04341,0.03101 -0.02791,0.0093 -0.08062,0.0155 -0.04961,0.0093 -0.127124,0.0093 -0.07752,0 -0.130225,-0.0093 -0.04961,-0.0062 -0.08062,-0.0155 -0.03101,-0.0124 -0.04341,-0.03101 -0.0124,-0.0186 -0.0124,-0.04341 v -3.714502 q 0,-0.120923 0.06201,-0.167432 0.06511,-0.04961 0.136426,-0.04961 h 0.852661 q 0.151928,0 0.251147,0.0093 0.10232,0.0062 0.182935,0.0155 0.232544,0.04031 0.409277,0.127124 0.179834,0.08682 0.300757,0.220141 0.120923,0.133325 0.179834,0.306958 0.06201,0.170532 0.06201,0.378272 0,0.201538 -0.05581,0.362768 -0.05271,0.15813 -0.155029,0.282154 -0.10232,0.120922 -0.244947,0.210839 -0.142626,0.08992 -0.31936,0.151929 0.09922,0.04341 0.179834,0.111621 0.08061,0.06511 0.148828,0.15813 0.07131,0.09302 0.133325,0.213941 0.06201,0.120922 0.124024,0.272851 l 0.359668,0.883667 q 0.04341,0.111621 0.05581,0.15813 0.0124,0.04341 0.0124,0.06821 z m -0.803052,-2.818433 q 0,-0.235644 -0.10542,-0.396875 -0.10542,-0.164331 -0.353467,-0.235644 -0.07751,-0.0217 -0.176733,-0.03101 -0.09612,-0.0093 -0.254248,-0.0093 h -0.449585 v 1.351856 h 0.520898 q 0.21084,0 0.362769,-0.04961 0.155029,-0.05271 0.257348,-0.142627 0.10232,-0.09302 0.148829,-0.217041 0.04961,-0.124023 0.04961,-0.269751 z"
           style="stroke-width:0.054"
           id="path4967" />
        <path
           d="m 86.850233,94.851764 q 0,0.120923 -0.06201,0.173633 -0.05891,0.04961 -0.136426,0.04961 H 84.82245 q 0,0.232544 0.04651,0.418579 0.04651,0.186035 0.155029,0.319361 0.108521,0.133325 0.282154,0.204638 0.173633,0.07131 0.42478,0.07131 0.198437,0 0.353467,-0.03101 0.155029,-0.03411 0.26665,-0.07441 0.114722,-0.04031 0.186035,-0.07131 0.07441,-0.03411 0.111621,-0.03411 0.0217,0 0.03721,0.0124 0.0186,0.0093 0.02791,0.03101 0.0093,0.0217 0.0124,0.06201 0.0062,0.03721 0.0062,0.09302 0,0.04031 -0.0031,0.07131 -0.0031,0.02791 -0.0093,0.05271 -0.0031,0.0217 -0.0155,0.04031 -0.0093,0.0186 -0.0279,0.03721 -0.0155,0.0155 -0.09922,0.05581 -0.08372,0.03721 -0.217041,0.07441 -0.133325,0.03721 -0.310059,0.06511 -0.173633,0.03101 -0.37207,0.03101 -0.344165,0 -0.604614,-0.09612 -0.257349,-0.09612 -0.434082,-0.285254 -0.176734,-0.189136 -0.266651,-0.474389 -0.08992,-0.285254 -0.08992,-0.663526 0,-0.359668 0.09302,-0.644922 0.09302,-0.288354 0.26665,-0.486792 0.176734,-0.201538 0.424781,-0.306958 0.248046,-0.10852 0.555004,-0.10852 0.328663,0 0.558106,0.10542 0.232544,0.10542 0.381372,0.285254 0.148828,0.176733 0.217041,0.418579 0.07131,0.238745 0.07131,0.511596 z m -0.514697,-0.151929 q 0.0093,-0.403076 -0.179834,-0.632519 -0.186035,-0.229444 -0.555005,-0.229444 -0.189135,0 -0.331762,0.07131 -0.142627,0.07131 -0.238745,0.189136 -0.09612,0.117822 -0.148829,0.275952 -0.05271,0.155029 -0.05891,0.325561 z"
           style="stroke-width:0.054"
           id="path4969" />
        <path
           d="m 89.380312,95.608307 q 0,0.21394 -0.08062,0.381372 -0.07751,0.167432 -0.223242,0.282153 -0.145727,0.114722 -0.347265,0.173633 -0.201539,0.05891 -0.443384,0.05891 -0.148828,0 -0.285254,-0.0248 -0.133325,-0.02171 -0.241846,-0.05581 -0.10542,-0.03721 -0.179834,-0.07441 -0.07441,-0.04031 -0.10852,-0.07131 -0.03411,-0.031 -0.04961,-0.08682 -0.0155,-0.05581 -0.0155,-0.151929 0,-0.05891 0.0062,-0.09922 0.0062,-0.04031 0.0155,-0.06511 0.0093,-0.0248 0.02481,-0.03411 0.0186,-0.0124 0.04031,-0.0124 0.03411,0 0.09922,0.04341 0.06821,0.04031 0.164332,0.08992 0.09922,0.04961 0.232543,0.09302 0.133326,0.04031 0.306958,0.04031 0.130225,0 0.235645,-0.02791 0.10542,-0.02791 0.182935,-0.08062 0.07751,-0.05581 0.117822,-0.139526 0.04341,-0.08372 0.04341,-0.198437 0,-0.117823 -0.06201,-0.198438 -0.05891,-0.08061 -0.15813,-0.142627 -0.09922,-0.06201 -0.223242,-0.10852 -0.124023,-0.04961 -0.257348,-0.10232 -0.130225,-0.05271 -0.257349,-0.117822 -0.124023,-0.06821 -0.223242,-0.164331 -0.09922,-0.09612 -0.161231,-0.229443 -0.05891,-0.133326 -0.05891,-0.319361 0,-0.164331 0.06201,-0.313159 0.06511,-0.151929 0.192236,-0.26355 0.127124,-0.114721 0.31626,-0.182934 0.192236,-0.06821 0.446484,-0.06821 0.111621,0 0.223243,0.0186 0.111621,0.0186 0.201538,0.04651 0.08992,0.0279 0.151928,0.06201 0.06511,0.03101 0.09612,0.05581 0.03411,0.02481 0.04341,0.04341 0.0124,0.0186 0.0155,0.04341 0.0062,0.0217 0.0093,0.05581 0.0062,0.03411 0.0062,0.08372 0,0.05271 -0.0062,0.09302 -0.0031,0.03721 -0.0155,0.06201 -0.0093,0.02481 -0.0248,0.03721 -0.0155,0.0093 -0.03411,0.0093 -0.02791,0 -0.08062,-0.03411 -0.05271,-0.03411 -0.136426,-0.07131 -0.08371,-0.04031 -0.198437,-0.07441 -0.111621,-0.03411 -0.257349,-0.03411 -0.130224,0 -0.229443,0.03101 -0.09922,0.0279 -0.164331,0.08371 -0.06201,0.05271 -0.09612,0.127124 -0.03101,0.07442 -0.03101,0.161231 0,0.120923 0.06201,0.204639 0.06201,0.08061 0.16123,0.142627 0.09922,0.06201 0.226343,0.111621 0.127124,0.04961 0.257348,0.102319 0.133326,0.05271 0.26045,0.117822 0.130224,0.06511 0.229443,0.15813 0.09922,0.09302 0.15813,0.223242 0.06201,0.130225 0.06201,0.310059 z"
           style="stroke-width:0.054"
           id="path4971" />
        <path
           d="m 92.4933,94.851764 q 0,0.120923 -0.06201,0.173633 -0.05891,0.04961 -0.136426,0.04961 h -1.829346 q 0,0.232544 0.04651,0.418579 0.04651,0.186035 0.15503,0.319361 0.10852,0.133325 0.282153,0.204638 0.173633,0.07131 0.42478,0.07131 0.198438,0 0.353467,-0.03101 0.155029,-0.03411 0.26665,-0.07441 0.114722,-0.04031 0.186035,-0.07131 0.07442,-0.03411 0.111622,-0.03411 0.0217,0 0.03721,0.0124 0.0186,0.0093 0.02791,0.03101 0.0093,0.0217 0.0124,0.06201 0.0062,0.03721 0.0062,0.09302 0,0.04031 -0.0031,0.07131 -0.0031,0.02791 -0.0093,0.05271 -0.0031,0.0217 -0.0155,0.04031 -0.0093,0.0186 -0.02791,0.03721 -0.0155,0.0155 -0.09922,0.05581 -0.08372,0.03721 -0.217041,0.07441 -0.133325,0.03721 -0.310059,0.06511 -0.173632,0.03101 -0.37207,0.03101 -0.344165,0 -0.604614,-0.09612 -0.257349,-0.09612 -0.434082,-0.285254 -0.176734,-0.189136 -0.26665,-0.474389 -0.08992,-0.285254 -0.08992,-0.663526 0,-0.359668 0.09302,-0.644922 0.09302,-0.288354 0.26665,-0.486792 0.176734,-0.201538 0.424781,-0.306958 0.248047,-0.10852 0.555005,-0.10852 0.328662,0 0.558105,0.10542 0.232544,0.10542 0.381372,0.285254 0.148828,0.176733 0.217041,0.418579 0.07131,0.238745 0.07131,0.511596 z m -0.514698,-0.151929 q 0.0093,-0.403076 -0.179834,-0.632519 -0.186035,-0.229444 -0.555004,-0.229444 -0.189136,0 -0.331763,0.07131 -0.142627,0.07131 -0.238745,0.189136 -0.09612,0.117822 -0.148828,0.275952 -0.05271,0.155029 -0.05891,0.325561 z"
           style="stroke-width:0.054"
           id="path4973" />
        <path
           d="m 95.373744,96.371051 q 0,0.03721 -0.02481,0.05581 -0.0248,0.0186 -0.06821,0.02791 -0.04341,0.0093 -0.127124,0.0093 -0.08062,0 -0.130225,-0.0093 -0.04651,-0.0093 -0.06821,-0.02791 -0.0217,-0.0186 -0.0217,-0.05581 v -0.279053 q -0.182935,0.195337 -0.409277,0.303858 -0.223243,0.10852 -0.47439,0.10852 -0.220142,0 -0.399976,-0.05891 -0.176733,-0.05581 -0.303857,-0.164331 -0.124023,-0.10852 -0.195337,-0.26665 -0.06821,-0.15813 -0.06821,-0.359668 0,-0.235645 0.09612,-0.409278 0.09612,-0.173632 0.275952,-0.288354 0.179834,-0.114722 0.440284,-0.170532 0.260449,-0.05891 0.58601,-0.05891 h 0.384473 v -0.217042 q 0,-0.16123 -0.03411,-0.285253 -0.03411,-0.124024 -0.111621,-0.204639 -0.07442,-0.08372 -0.195337,-0.124024 -0.120923,-0.04341 -0.297657,-0.04341 -0.189135,0 -0.341064,0.04651 -0.148828,0.04341 -0.26355,0.09922 -0.111621,0.05271 -0.189136,0.09922 -0.07441,0.04341 -0.111621,0.04341 -0.0248,0 -0.04341,-0.0124 -0.0186,-0.0124 -0.03411,-0.03721 -0.0124,-0.0248 -0.0186,-0.06201 -0.0062,-0.04031 -0.0062,-0.08682 0,-0.07751 0.0093,-0.120923 0.0124,-0.04651 0.05271,-0.08682 0.04341,-0.04031 0.145727,-0.09302 0.10232,-0.05581 0.235645,-0.09922 0.133325,-0.04651 0.291455,-0.07441 0.15813,-0.03101 0.31936,-0.03101 0.300757,0 0.511597,0.06821 0.21084,0.06821 0.341064,0.201538 0.130225,0.130224 0.189136,0.325561 0.05891,0.195337 0.05891,0.455786 z M 94.865248,95.09671 h -0.437183 q -0.210839,0 -0.365869,0.03721 -0.155029,0.03411 -0.257348,0.10542 -0.10232,0.06821 -0.151929,0.167432 -0.04651,0.09612 -0.04651,0.223242 0,0.217041 0.136426,0.347266 0.139526,0.127124 0.387573,0.127124 0.201538,0 0.372071,-0.10232 0.173632,-0.102319 0.362768,-0.313159 z"
           style="stroke-width:0.054"
           id="path4975" />
        <path
           d="m 97.94413,93.760358 q 0,0.06821 -0.0031,0.114721 -0.0031,0.04651 -0.0124,0.07441 -0.0093,0.02481 -0.02481,0.04031 -0.0124,0.0124 -0.03721,0.0124 -0.02481,0 -0.06201,-0.0124 -0.03411,-0.0155 -0.08061,-0.02791 -0.04341,-0.0155 -0.09922,-0.0279 -0.05581,-0.0124 -0.120922,-0.0124 -0.07751,0 -0.151929,0.03101 -0.07441,0.03101 -0.15813,0.102319 -0.08061,0.07131 -0.170532,0.189136 -0.08992,0.117822 -0.198438,0.288355 v 1.835546 q 0,0.02481 -0.0124,0.04341 -0.0124,0.0155 -0.04031,0.0279 -0.02791,0.0124 -0.07751,0.0186 -0.04961,0.0062 -0.127124,0.0062 -0.07441,0 -0.124024,-0.0062 -0.04961,-0.0062 -0.08061,-0.0186 -0.02791,-0.0124 -0.04031,-0.0279 -0.0093,-0.0186 -0.0093,-0.04341 v -2.790527 q 0,-0.02481 0.0093,-0.04031 0.0093,-0.0186 0.03721,-0.03101 0.02791,-0.0155 0.07131,-0.0186 0.04341,-0.0062 0.114721,-0.0062 0.06821,0 0.111622,0.0062 0.04651,0.0031 0.07131,0.0186 0.02481,0.0124 0.03411,0.03101 0.0124,0.0155 0.0124,0.04031 V 93.9836 q 0.114722,-0.167432 0.21394,-0.272852 0.10232,-0.10542 0.192237,-0.164331 0.08992,-0.06201 0.176733,-0.08372 0.08992,-0.0248 0.179834,-0.0248 0.04031,0 0.08992,0.0062 0.05271,0.0031 0.10852,0.0155 0.05581,0.0124 0.09922,0.0279 0.04651,0.0155 0.06511,0.03101 0.0186,0.0155 0.0248,0.03101 0.0062,0.0124 0.0093,0.03411 0.0062,0.0217 0.0062,0.06511 0.0031,0.04031 0.0031,0.111621 z"
           style="stroke-width:0.054"
           id="path4977" />
        <path
           d="m 100.4401,95.94317 q 0,0.05271 -0.003,0.09302 -0.003,0.03721 -0.0124,0.06511 -0.006,0.02481 -0.0186,0.04651 -0.009,0.0186 -0.0496,0.05891 -0.0372,0.03721 -0.13023,0.09612 -0.093,0.05581 -0.21084,0.102319 -0.11472,0.04341 -0.251146,0.07131 -0.136426,0.0279 -0.282153,0.0279 -0.300757,0 -0.533301,-0.09922 -0.232544,-0.09922 -0.390674,-0.288354 -0.155029,-0.192236 -0.238745,-0.468188 -0.08061,-0.279053 -0.08061,-0.641822 0,-0.412378 0.09922,-0.706933 0.10232,-0.297657 0.275952,-0.486792 0.176734,-0.189136 0.412378,-0.279053 0.238746,-0.09302 0.514698,-0.09302 0.133325,0 0.257348,0.02481 0.127124,0.02481 0.232543,0.06511 0.10542,0.04031 0.18604,0.09302 0.0837,0.05271 0.12092,0.08992 0.0372,0.03721 0.0496,0.05891 0.0155,0.0217 0.0248,0.05271 0.009,0.02791 0.0124,0.06511 0.003,0.03721 0.003,0.09302 0,0.120923 -0.0279,0.170532 -0.0279,0.04651 -0.0682,0.04651 -0.0465,0 -0.10852,-0.04961 -0.0589,-0.05271 -0.15193,-0.114722 -0.09302,-0.06201 -0.226344,-0.111621 -0.130225,-0.05271 -0.310058,-0.05271 -0.36897,0 -0.567408,0.285254 -0.195337,0.282153 -0.195337,0.821655 0,0.269751 0.04961,0.47439 0.05271,0.201538 0.151928,0.337963 0.09922,0.136426 0.241846,0.204639 0.145728,0.06511 0.331763,0.06511 0.176733,0 0.310058,-0.05581 0.133326,-0.05581 0.229442,-0.120923 0.0992,-0.06821 0.16434,-0.120923 0.0682,-0.05581 0.10542,-0.05581 0.0217,0 0.0372,0.0124 0.0155,0.0124 0.0248,0.04341 0.0124,0.02791 0.0155,0.07441 0.006,0.04341 0.006,0.10542 z"
           style="stroke-width:0.054"
           id="path4979" />
        <path
           d="m 103.52208,96.36795 q 0,0.02481 -0.0124,0.04341 -0.0124,0.0155 -0.0403,0.0279 -0.0279,0.0124 -0.0775,0.0186 -0.0496,0.0062 -0.12402,0.0062 -0.0775,0 -0.12713,-0.0062 -0.0496,-0.0062 -0.0775,-0.0186 -0.0279,-0.0124 -0.0403,-0.0279 -0.0124,-0.0186 -0.0124,-0.04341 v -1.634008 q 0,-0.238745 -0.0372,-0.384473 -0.0372,-0.145728 -0.10852,-0.251147 -0.0713,-0.10542 -0.18603,-0.161231 -0.11163,-0.05581 -0.26045,-0.05581 -0.19224,0 -0.38448,0.136425 -0.19223,0.136426 -0.40307,0.399976 v 1.950268 q 0,0.02481 -0.0124,0.04341 -0.0124,0.0155 -0.0403,0.0279 -0.0279,0.0124 -0.0775,0.0186 -0.0496,0.0062 -0.12712,0.0062 -0.0744,0 -0.12402,-0.0062 -0.0496,-0.0062 -0.0806,-0.0186 -0.0279,-0.0124 -0.0403,-0.0279 -0.009,-0.0186 -0.009,-0.04341 v -4.142382 q 0,-0.02481 0.009,-0.04341 0.0124,-0.0186 0.0403,-0.031 0.031,-0.0124 0.0806,-0.0186 0.0496,-0.0062 0.12402,-0.0062 0.0775,0 0.12712,0.0062 0.0496,0.0062 0.0775,0.0186 0.0279,0.0124 0.0403,0.031 0.0124,0.0186 0.0124,0.04341 v 1.671215 q 0.22014,-0.232543 0.44338,-0.344165 0.22324,-0.114721 0.44959,-0.114721 0.27905,0 0.46818,0.09612 0.19224,0.09302 0.31006,0.251147 0.11783,0.15813 0.16743,0.372071 0.0527,0.21084 0.0527,0.511596 z"
           style="stroke-width:0.054"
           id="path4981" />
      </g>
    </g> -->
    <text
       xml:space="preserve"
       style="font-style:normal;font-variant:normal;font-weight:normal;font-stretch:normal;font-size:6.1311px;font-family:Calibri;-inkscape-font-specification:Calibri;fill:#f9f9f9;stroke:#00000f;stroke-width:0.0586557;stroke-miterlimit:1"
       x="27.642879"
       y="5.8916035"
       id="text1590"><tspan
         sodipodi:role="line"
         id="tspan1588"
         style="font-style:normal;font-variant:normal;font-weight:normal;font-stretch:normal;font-size:6.1311px;font-family:Calibri;-inkscape-font-specification:Calibri;fill:#f9f9f9;stroke-width:0.0586558"
         x="27.642879"
         y="5.8916035">MI Trace View</tspan></text>
  </g>
</svg>
